<svg width="533.7px" height="128px" xmlns="http://www.w3.org/2000/svg" viewBox="-16.840008544921886 10.980004882812494 533.6800170898438 128.039990234375" style="background: none" preserveAspectRatio="xMidYMid"><defs><linearGradient id="editing-glowing-gradient" x1="0.8146601955249185" x2="0.18533980447508147" y1="0.8885729807284856" y2="0.11142701927151444"><stop offset="0" stop-color="#49dd26"></stop><stop offset="1" stop-color="#13b1b1"></stop></linearGradient><filter id="editing-glowing" x="-100%" y="-100%" width="300%" height="300%"><feGaussianBlur in="SourceGraphic" result="blur" stdDeviation="10"></feGaussianBlur><feMerge><feMergeNode in="blur"></feMergeNode><feMergeNode in="SourceGraphic"></feMergeNode></feMerge></filter></defs><g filter="url(#editing-glowing)"><g transform="matrix(1.2,0,0,1.4,37.3,153.3)"><path d="M 0.5 -38.5 L 0.5 -38.5 Q -2.9 -38.5 -4.7 -40.5 L -4.7 -40.5 L -4.7 -40.5 Q -6.5 -42.5 -6.5 -45.7 L -6.5 -45.7 L -6.5 -70.6 L 0.8 -70.6 L 0.8 -46.4 L 0.8 -46.4 Q 0.8 -44.9 1.3 -44.4 L 1.3 -44.4 L 1.3 -44.4 Q 1.7 -43.9 2.6 -43.9 L 2.6 -43.9 L 2.6 -43.9 Q 2.9 -43.9 3.2 -43.9 L 3.2 -43.9 L 3.2 -43.9 Q 3.5 -43.9 3.7 -43.9 L 3.7 -43.9 L 3.7 -43.9 Q 4 -43.9 4.3 -44 L 4.3 -44 L 5.1 -39.4 L 5.1 -39.4 Q 4.6 -39.1 3.9 -39 L 3.9 -39 L 3.9 -39 Q 3.3 -38.8 2.5 -38.6 L 2.5 -38.6 L 2.5 -38.6 Q 1.6 -38.5 0.5 -38.5 L 0.5 -38.5 Z M -2.7 -84.8 L -2.7 -84.8 Q -0.6 -84.8 0.5 -83.6 L 0.5 -83.6 L 0.5 -83.6 Q 1.5 -82.4 1.5 -80.5 L 1.5 -80.5 L 1.5 -80.5 Q 1.5 -78.6 0.4 -77.3 L 0.4 -77.3 L 0.4 -77.3 Q -0.7 -76 -2.9 -76 L -2.9 -76 L -2.9 -76 Q -4.9 -76 -6 -77.3 L -6 -77.3 L -6 -77.3 Q -7.2 -78.5 -7.2 -80.3 L -7.2 -80.3 L -7.2 -80.3 Q -7.2 -82.3 -6 -83.6 L -6 -83.6 L -6 -83.6 Q -4.9 -84.8 -2.7 -84.8 L -2.7 -84.8 Z M 54 -38.8 L 46.7 -38.8 L 46.7 -59.6 L 46.7 -59.6 Q 46.7 -62.3 45.9 -63.9 L 45.9 -63.9 L 45.9 -63.9 Q 45.1 -65.5 43 -65.5 L 43 -65.5 L 43 -65.5 Q 41.8 -65.5 40.6 -64.8 L 40.6 -64.8 L 40.6 -64.8 Q 39.3 -64.1 38.3 -62.8 L 38.3 -62.8 L 38.3 -62.8 Q 37.3 -61.5 36.6 -59.8 L 36.6 -59.8 L 36.6 -59.8 Q 36 -58 36 -55.8 L 36 -55.8 L 36 -38.8 L 28.7 -38.8 L 28.7 -59.6 L 28.7 -59.6 Q 28.7 -62.3 27.9 -63.9 L 27.9 -63.9 L 27.9 -63.9 Q 27.1 -65.5 25 -65.5 L 25 -65.5 L 25 -65.5 Q 23.8 -65.5 22.5 -64.7 L 22.5 -64.7 L 22.5 -64.7 Q 21.3 -64 20.3 -62.6 L 20.3 -62.6 L 20.3 -62.6 Q 19.3 -61.2 18.7 -59.1 L 18.7 -59.1 L 18.7 -59.1 Q 18.1 -57.1 18.1 -54.6 L 18.1 -54.6 L 18.1 -38.8 L 10.8 -38.8 L 10.8 -54.9 L 10.8 -54.9 Q 10.8 -58.7 10.3 -61.3 L 10.3 -61.3 L 10.3 -61.3 Q 9.7 -63.9 9.2 -65.5 L 9.2 -65.5 L 9.2 -65.5 Q 8.5 -67.4 7.6 -68.5 L 7.6 -68.5 L 13.4 -70.8 L 13.4 -70.8 Q 14 -70.1 14.7 -69.1 L 14.7 -69.1 L 14.7 -69.1 Q 15.2 -68.2 15.7 -66.9 L 15.7 -66.9 L 15.7 -66.9 Q 16.2 -65.6 16.5 -63.9 L 16.5 -63.9 L 16.5 -63.9 Q 18.1 -67.8 21 -69.5 L 21 -69.5 L 21 -69.5 Q 23.9 -71.1 27.2 -71.1 L 27.2 -71.1 L 27.2 -71.1 Q 30.5 -71.1 32.3 -69.5 L 32.3 -69.5 L 32.3 -69.5 Q 34.1 -67.8 35 -65.2 L 35 -65.2 L 35 -65.2 Q 36.7 -68.4 39.5 -69.8 L 39.5 -69.8 L 39.5 -69.8 Q 42.2 -71.1 45.2 -71.1 L 45.2 -71.1 L 45.2 -71.1 Q 47.7 -71.1 49.4 -70.3 L 49.4 -70.3 L 49.4 -70.3 Q 51.1 -69.5 52.1 -68.1 L 52.1 -68.1 L 52.1 -68.1 Q 53.1 -66.7 53.5 -64.7 L 53.5 -64.7 L 53.5 -64.7 Q 54 -62.6 54 -60.1 L 54 -60.1 L 54 -38.8 Z M 87.7 -69.3 L 87.7 -54.2 L 87.7 -54.2 Q 87.7 -50.3 88.2 -47.8 L 88.2 -47.8 L 88.2 -47.8 Q 88.7 -45.2 89.2 -43.6 L 89.2 -43.6 L 89.2 -43.6 Q 89.9 -41.6 90.8 -40.6 L 90.8 -40.6 L 85.1 -38.3 L 85.1 -38.3 Q 84.2 -39.1 83.5 -40.2 L 83.5 -40.2 L 83.5 -40.2 Q 83 -41.3 82.4 -42.7 L 82.4 -42.7 L 82.4 -42.7 Q 81.9 -44.1 81.8 -46.1 L 81.8 -46.1 L 81.8 -46.1 Q 80.7 -42.3 78.3 -40.3 L 78.3 -40.3 L 78.3 -40.3 Q 75.9 -38.4 71.8 -38.4 L 71.8 -38.4 L 71.8 -38.4 Q 68.8 -38.4 66.6 -39.5 L 66.6 -39.5 L 66.6 -39.5 Q 64.4 -40.6 62.9 -42.7 L 62.9 -42.7 L 62.9 -42.7 Q 61.5 -44.8 60.7 -47.7 L 60.7 -47.7 L 60.7 -47.7 Q 60 -50.7 60 -54.3 L 60 -54.3 L 60 -54.3 Q 60 -57.9 61.2 -61 L 61.2 -61 L 61.2 -61 Q 62.3 -64.1 64.3 -66.3 L 64.3 -66.3 L 64.3 -66.3 Q 66.3 -68.6 69.1 -69.9 L 69.1 -69.9 L 69.1 -69.9 Q 71.9 -71.1 75.3 -71.1 L 75.3 -71.1 L 75.3 -71.1 Q 77.3 -71.1 79.3 -70.9 L 79.3 -70.9 L 79.3 -70.9 Q 81.4 -70.6 83.2 -70.3 L 83.2 -70.3 L 83.2 -70.3 Q 85 -69.9 86.3 -69.6 L 86.3 -69.6 L 86.3 -69.6 Q 87.5 -69.4 87.7 -69.3 L 87.7 -69.3 Z M 73 -43.5 L 73 -43.5 Q 74.6 -43.5 76 -44.6 L 76 -44.6 L 76 -44.6 Q 77.3 -45.7 78.3 -47.4 L 78.3 -47.4 L 78.3 -47.4 Q 79.3 -49.2 79.9 -51.5 L 79.9 -51.5 L 79.9 -51.5 Q 80.4 -53.7 80.4 -56.1 L 80.4 -56.1 L 80.4 -65.3 L 80.4 -65.3 Q 79.8 -65.5 78.5 -65.8 L 78.5 -65.8 L 78.5 -65.8 Q 77.2 -66 76.2 -66 L 76.2 -66 L 76.2 -66 Q 73.7 -66 72.2 -65.2 L 72.2 -65.2 L 72.2 -65.2 Q 70.6 -64.4 69.6 -62.9 L 69.6 -62.9 L 69.6 -62.9 Q 68.7 -61.4 68.3 -59.4 L 68.3 -59.4 L 68.3 -59.4 Q 67.9 -57.3 67.9 -54.9 L 67.9 -54.9 L 67.9 -54.9 Q 67.9 -52.7 68 -50.6 L 68 -50.6 L 68 -50.6 Q 68.2 -48.6 68.7 -47 L 68.7 -47 L 68.7 -47 Q 69.3 -45.4 70.3 -44.4 L 70.3 -44.4 L 70.3 -44.4 Q 71.3 -43.5 73 -43.5 L 73 -43.5 Z M 99.3 -27.6 L 101.1 -33.1 L 101.1 -33.1 Q 102 -32.7 103.1 -32.3 L 103.1 -32.3 L 103.1 -32.3 Q 104.2 -31.9 105.4 -31.5 L 105.4 -31.5 L 105.4 -31.5 Q 106.6 -31.1 107.9 -30.9 L 107.9 -30.9 L 107.9 -30.9 Q 109.1 -30.6 110.3 -30.6 L 110.3 -30.6 L 110.3 -30.6 Q 113.9 -30.6 115.5 -32.8 L 115.5 -32.8 L 115.5 -32.8 Q 117.1 -34.9 117.1 -38.3 L 117.1 -38.3 L 117.1 -38.3 Q 117.1 -41.6 115.7 -45 L 115.7 -45 L 115.7 -45 Q 114.6 -41.8 112.3 -40.1 L 112.3 -40.1 L 112.3 -40.1 Q 110 -38.4 106.1 -38.4 L 106.1 -38.4 L 106.1 -38.4 Q 103.1 -38.4 100.9 -39.5 L 100.9 -39.5 L 100.9 -39.5 Q 98.7 -40.6 97.2 -42.7 L 97.2 -42.7 L 97.2 -42.7 Q 95.8 -44.8 95.1 -47.7 L 95.1 -47.7 L 95.1 -47.7 Q 94.3 -50.7 94.3 -54.3 L 94.3 -54.3 L 94.3 -54.3 Q 94.3 -57.9 95.5 -61 L 95.5 -61 L 95.5 -61 Q 96.6 -64.1 98.6 -66.3 L 98.6 -66.3 L 98.6 -66.3 Q 100.6 -68.6 103.4 -69.9 L 103.4 -69.9 L 103.4 -69.9 Q 106.3 -71.1 109.6 -71.1 L 109.6 -71.1 L 109.6 -71.1 Q 111.2 -71.1 112.9 -71 L 112.9 -71 L 112.9 -71 Q 114.7 -70.8 116.4 -70.5 L 116.4 -70.5 L 116.4 -70.5 Q 118.1 -70.2 119.6 -69.9 L 119.6 -69.9 L 119.6 -69.9 Q 121.1 -69.5 122.2 -69.3 L 122.2 -69.3 L 121.9 -51.7 L 121.9 -51.7 Q 121.8 -49.8 122.1 -48.2 L 122.1 -48.2 L 122.1 -48.2 Q 122.4 -46.6 122.8 -45 L 122.8 -45 L 122.8 -45 Q 123.1 -43.4 123.5 -41.8 L 123.5 -41.8 L 123.5 -41.8 Q 123.8 -40.2 123.8 -38.3 L 123.8 -38.3 L 123.8 -38.3 Q 123.8 -31.5 120.3 -28.2 L 120.3 -28.2 L 120.3 -28.2 Q 116.9 -24.9 111 -24.9 L 111 -24.9 L 111 -24.9 Q 109.1 -24.9 107.1 -25.2 L 107.1 -25.2 L 107.1 -25.2 Q 105.2 -25.6 103.6 -26 L 103.6 -26 L 103.6 -26 Q 102 -26.5 100.8 -26.9 L 100.8 -26.9 L 100.8 -26.9 Q 99.7 -27.4 99.3 -27.6 L 99.3 -27.6 Z M 107.3 -43.5 L 107.3 -43.5 Q 108.9 -43.5 110.2 -44.5 L 110.2 -44.5 L 110.2 -44.5 Q 111.5 -45.5 112.5 -47.2 L 112.5 -47.2 L 112.5 -47.2 Q 113.5 -48.9 114.1 -51.1 L 114.1 -51.1 L 114.1 -51.1 Q 114.7 -53.3 114.7 -55.6 L 114.7 -55.6 L 114.7 -65.3 L 114.7 -65.3 Q 114.1 -65.5 112.8 -65.8 L 112.8 -65.8 L 112.8 -65.8 Q 111.5 -66 110.5 -66 L 110.5 -66 L 110.5 -66 Q 108 -66 106.5 -65.2 L 106.5 -65.2 L 106.5 -65.2 Q 104.9 -64.4 103.9 -62.9 L 103.9 -62.9 L 103.9 -62.9 Q 103 -61.4 102.6 -59.4 L 102.6 -59.4 L 102.6 -59.4 Q 102.2 -57.3 102.2 -54.9 L 102.2 -54.9 L 102.2 -54.9 Q 102.2 -52.7 102.3 -50.6 L 102.3 -50.6 L 102.3 -50.6 Q 102.5 -48.6 103 -47 L 103 -47 L 103 -47 Q 103.6 -45.4 104.6 -44.4 L 104.6 -44.4 L 104.6 -44.4 Q 105.6 -43.5 107.3 -43.5 L 107.3 -43.5 Z M 128.3 -53.9 L 128.3 -53.9 Q 128.3 -58.2 129.5 -61.5 L 129.5 -61.5 L 129.5 -61.5 Q 130.7 -64.7 132.8 -67 L 132.8 -67 L 132.8 -67 Q 134.9 -69.2 137.7 -70.3 L 137.7 -70.3 L 137.7 -70.3 Q 140.5 -71.4 143.8 -71.4 L 143.8 -71.4 L 143.8 -71.4 Q 146.6 -71.4 148.7 -70.7 L 148.7 -70.7 L 148.7 -70.7 Q 150.7 -70 151.9 -68.8 L 151.9 -68.8 L 151.9 -68.8 Q 153.2 -67.6 153.8 -65.9 L 153.8 -65.9 L 153.8 -65.9 Q 154.4 -64.2 154.4 -62.3 L 154.4 -62.3 L 154.4 -62.3 Q 154.4 -60 153.2 -57.9 L 153.2 -57.9 L 153.2 -57.9 Q 151.9 -55.9 149.5 -54.3 L 149.5 -54.3 L 149.5 -54.3 Q 147.1 -52.7 143.7 -51.8 L 143.7 -51.8 L 143.7 -51.8 Q 140.3 -50.9 136.1 -50.8 L 136.1 -50.8 L 136.1 -50.8 Q 136.3 -49.3 136.7 -48 L 136.7 -48 L 136.7 -48 Q 137.1 -46.7 137.9 -45.7 L 137.9 -45.7 L 137.9 -45.7 Q 138.7 -44.7 140 -44.1 L 140 -44.1 L 140 -44.1 Q 141.3 -43.6 143.2 -43.6 L 143.2 -43.6 L 143.2 -43.6 Q 144.6 -43.6 146.2 -43.9 L 146.2 -43.9 L 146.2 -43.9 Q 147.8 -44.2 149.1 -44.7 L 149.1 -44.7 L 149.1 -44.7 Q 150.7 -45.2 152.3 -45.8 L 152.3 -45.8 L 154.2 -41.3 L 154.2 -41.3 Q 152.5 -40.4 150.6 -39.8 L 150.6 -39.8 L 150.6 -39.8 Q 148.9 -39.2 146.8 -38.8 L 146.8 -38.8 L 146.8 -38.8 Q 144.6 -38.3 142.2 -38.3 L 142.2 -38.3 L 142.2 -38.3 Q 138.4 -38.3 135.8 -39.4 L 135.8 -39.4 L 135.8 -39.4 Q 133.2 -40.6 131.5 -42.6 L 131.5 -42.6 L 131.5 -42.6 Q 129.9 -44.7 129.1 -47.5 L 129.1 -47.5 L 129.1 -47.5 Q 128.3 -50.4 128.3 -53.9 L 128.3 -53.9 Z M 143.2 -66.4 L 143.2 -66.4 Q 141.1 -66.4 139.7 -65.4 L 139.7 -65.4 L 139.7 -65.4 Q 138.3 -64.4 137.5 -62.9 L 137.5 -62.9 L 137.5 -62.9 Q 136.7 -61.3 136.3 -59.3 L 136.3 -59.3 L 136.3 -59.3 Q 135.9 -57.4 135.9 -55.4 L 135.9 -55.4 L 135.9 -55.4 Q 139 -55.5 141.1 -56.2 L 141.1 -56.2 L 141.1 -56.2 Q 143.2 -56.9 144.6 -57.9 L 144.6 -57.9 L 144.6 -57.9 Q 145.9 -58.9 146.5 -60 L 146.5 -60 L 146.5 -60 Q 147.1 -61.2 147.1 -62.3 L 147.1 -62.3 L 147.1 -62.3 Q 147.1 -64.2 146.1 -65.3 L 146.1 -65.3 L 146.1 -65.3 Q 145 -66.4 143.2 -66.4 L 143.2 -66.4 Z M 179.9 -27.6 L 181.6 -33.1 L 181.6 -33.1 Q 182.6 -32.7 183.7 -32.3 L 183.7 -32.3 L 183.7 -32.3 Q 184.8 -31.9 186 -31.5 L 186 -31.5 L 186 -31.5 Q 187.2 -31.1 188.5 -30.9 L 188.5 -30.9 L 188.5 -30.9 Q 189.7 -30.6 190.9 -30.6 L 190.9 -30.6 L 190.9 -30.6 Q 194.5 -30.6 196.1 -32.8 L 196.1 -32.8 L 196.1 -32.8 Q 197.7 -34.9 197.7 -38.3 L 197.7 -38.3 L 197.7 -38.3 Q 197.7 -41.6 196.3 -45 L 196.3 -45 L 196.3 -45 Q 195.2 -41.8 192.9 -40.1 L 192.9 -40.1 L 192.9 -40.1 Q 190.5 -38.4 186.7 -38.4 L 186.7 -38.4 L 186.7 -38.4 Q 183.7 -38.4 181.5 -39.5 L 181.5 -39.5 L 181.5 -39.5 Q 179.3 -40.6 177.8 -42.7 L 177.8 -42.7 L 177.8 -42.7 Q 176.3 -44.8 175.6 -47.7 L 175.6 -47.7 L 175.6 -47.7 Q 174.9 -50.7 174.9 -54.3 L 174.9 -54.3 L 174.9 -54.3 Q 174.9 -57.9 176 -61 L 176 -61 L 176 -61 Q 177.2 -64.1 179.2 -66.3 L 179.2 -66.3 L 179.2 -66.3 Q 181.2 -68.6 184 -69.9 L 184 -69.9 L 184 -69.9 Q 186.8 -71.1 190.2 -71.1 L 190.2 -71.1 L 190.2 -71.1 Q 191.8 -71.1 193.5 -71 L 193.5 -71 L 193.5 -71 Q 195.3 -70.8 197 -70.5 L 197 -70.5 L 197 -70.5 Q 198.7 -70.2 200.2 -69.9 L 200.2 -69.9 L 200.2 -69.9 Q 201.7 -69.5 202.8 -69.3 L 202.8 -69.3 L 202.4 -51.7 L 202.4 -51.7 Q 202.4 -49.8 202.7 -48.2 L 202.7 -48.2 L 202.7 -48.2 Q 203 -46.6 203.3 -45 L 203.3 -45 L 203.3 -45 Q 203.7 -43.4 204 -41.8 L 204 -41.8 L 204 -41.8 Q 204.4 -40.2 204.4 -38.3 L 204.4 -38.3 L 204.4 -38.3 Q 204.4 -31.5 200.9 -28.2 L 200.9 -28.2 L 200.9 -28.2 Q 197.5 -24.9 191.6 -24.9 L 191.6 -24.9 L 191.6 -24.9 Q 189.6 -24.9 187.7 -25.2 L 187.7 -25.2 L 187.7 -25.2 Q 185.8 -25.6 184.2 -26 L 184.2 -26 L 184.2 -26 Q 182.5 -26.5 181.4 -26.9 L 181.4 -26.9 L 181.4 -26.9 Q 180.2 -27.4 179.9 -27.6 L 179.9 -27.6 Z M 187.9 -43.5 L 187.9 -43.5 Q 189.5 -43.5 190.8 -44.5 L 190.8 -44.5 L 190.8 -44.5 Q 192.1 -45.5 193.1 -47.2 L 193.1 -47.2 L 193.1 -47.2 Q 194.1 -48.9 194.7 -51.1 L 194.7 -51.1 L 194.7 -51.1 Q 195.3 -53.3 195.3 -55.6 L 195.3 -55.6 L 195.3 -65.3 L 195.3 -65.3 Q 194.6 -65.5 193.4 -65.8 L 193.4 -65.8 L 193.4 -65.8 Q 192.1 -66 191.1 -66 L 191.1 -66 L 191.1 -66 Q 188.6 -66 187.1 -65.2 L 187.1 -65.2 L 187.1 -65.2 Q 185.5 -64.4 184.5 -62.9 L 184.5 -62.9 L 184.5 -62.9 Q 183.6 -61.4 183.2 -59.4 L 183.2 -59.4 L 183.2 -59.4 Q 182.8 -57.3 182.8 -54.9 L 182.8 -54.9 L 182.8 -54.9 Q 182.8 -52.7 182.9 -50.6 L 182.9 -50.6 L 182.9 -50.6 Q 183.1 -48.6 183.6 -47 L 183.6 -47 L 183.6 -47 Q 184.1 -45.4 185.2 -44.4 L 185.2 -44.4 L 185.2 -44.4 Q 186.2 -43.5 187.9 -43.5 L 187.9 -43.5 Z M 236.6 -69.3 L 236.6 -54.2 L 236.6 -54.2 Q 236.6 -50.3 237 -47.8 L 237 -47.8 L 237 -47.8 Q 237.5 -45.2 238.1 -43.6 L 238.1 -43.6 L 238.1 -43.6 Q 238.8 -41.6 239.6 -40.6 L 239.6 -40.6 L 233.9 -38.3 L 233.9 -38.3 Q 233.1 -39.1 232.4 -40.2 L 232.4 -40.2 L 232.4 -40.2 Q 231.8 -41.3 231.3 -42.7 L 231.3 -42.7 L 231.3 -42.7 Q 230.8 -44.1 230.7 -46.1 L 230.7 -46.1 L 230.7 -46.1 Q 229.6 -42.3 227.2 -40.3 L 227.2 -40.3 L 227.2 -40.3 Q 224.8 -38.4 220.7 -38.4 L 220.7 -38.4 L 220.7 -38.4 Q 217.7 -38.4 215.5 -39.5 L 215.5 -39.5 L 215.5 -39.5 Q 213.3 -40.6 211.8 -42.7 L 211.8 -42.7 L 211.8 -42.7 Q 210.3 -44.8 209.6 -47.7 L 209.6 -47.7 L 209.6 -47.7 Q 208.9 -50.7 208.9 -54.3 L 208.9 -54.3 L 208.9 -54.3 Q 208.9 -57.9 210 -61 L 210 -61 L 210 -61 Q 211.1 -64.1 213.2 -66.3 L 213.2 -66.3 L 213.2 -66.3 Q 215.2 -68.6 218 -69.9 L 218 -69.9 L 218 -69.9 Q 220.8 -71.1 224.2 -71.1 L 224.2 -71.1 L 224.2 -71.1 Q 226.1 -71.1 228.2 -70.9 L 228.2 -70.9 L 228.2 -70.9 Q 230.3 -70.6 232.1 -70.3 L 232.1 -70.3 L 232.1 -70.3 Q 233.9 -69.9 235.1 -69.6 L 235.1 -69.6 L 235.1 -69.6 Q 236.4 -69.4 236.6 -69.3 L 236.6 -69.3 Z M 221.9 -43.5 L 221.9 -43.5 Q 223.5 -43.5 224.8 -44.6 L 224.8 -44.6 L 224.8 -44.6 Q 226.2 -45.7 227.2 -47.4 L 227.2 -47.4 L 227.2 -47.4 Q 228.2 -49.2 228.7 -51.5 L 228.7 -51.5 L 228.7 -51.5 Q 229.3 -53.7 229.3 -56.1 L 229.3 -56.1 L 229.3 -65.3 L 229.3 -65.3 Q 228.6 -65.5 227.3 -65.8 L 227.3 -65.8 L 227.3 -65.8 Q 226.1 -66 225 -66 L 225 -66 L 225 -66 Q 222.6 -66 221 -65.2 L 221 -65.2 L 221 -65.2 Q 219.5 -64.4 218.5 -62.9 L 218.5 -62.9 L 218.5 -62.9 Q 217.5 -61.4 217.2 -59.4 L 217.2 -59.4 L 217.2 -59.4 Q 216.8 -57.3 216.8 -54.9 L 216.8 -54.9 L 216.8 -54.9 Q 216.8 -52.7 216.9 -50.6 L 216.9 -50.6 L 216.9 -50.6 Q 217 -48.6 217.6 -47 L 217.6 -47 L 217.6 -47 Q 218.1 -45.4 219.1 -44.4 L 219.1 -44.4 L 219.1 -44.4 Q 220.2 -43.5 221.9 -43.5 L 221.9 -43.5 Z M 251.9 -38.5 L 251.9 -38.5 Q 248.3 -38.5 246.5 -40.5 L 246.5 -40.5 L 246.5 -40.5 Q 244.8 -42.5 244.8 -45.7 L 244.8 -45.7 L 244.8 -83.9 L 252.1 -85.2 L 252.1 -46.4 L 252.1 -46.4 Q 252.1 -44.9 252.7 -44.3 L 252.7 -44.3 L 252.7 -44.3 Q 253.3 -43.8 254.3 -43.8 L 254.3 -43.8 L 254.3 -43.8 Q 255 -43.8 255.6 -43.8 L 255.6 -43.8 L 255.6 -43.8 Q 256.2 -43.9 256.7 -44 L 256.7 -44 L 256.7 -44 Q 257.3 -44.1 257.7 -44.3 L 257.7 -44.3 L 258.6 -39.7 L 258.6 -39.7 Q 257.8 -39.3 256.8 -39.1 L 256.8 -39.1 L 256.8 -39.1 Q 255.9 -38.8 254.7 -38.7 L 254.7 -38.7 L 254.7 -38.7 Q 253.5 -38.5 251.9 -38.5 L 251.9 -38.5 Z M 270.5 -38.5 L 270.5 -38.5 Q 266.9 -38.5 265.2 -40.5 L 265.2 -40.5 L 265.2 -40.5 Q 263.4 -42.5 263.4 -45.7 L 263.4 -45.7 L 263.4 -83.9 L 270.7 -85.2 L 270.7 -46.4 L 270.7 -46.4 Q 270.7 -44.9 271.3 -44.3 L 271.3 -44.3 L 271.3 -44.3 Q 271.9 -43.8 273 -43.8 L 273 -43.8 L 273 -43.8 Q 273.6 -43.8 274.2 -43.8 L 274.2 -43.8 L 274.2 -43.8 Q 274.8 -43.9 275.3 -44 L 275.3 -44 L 275.3 -44 Q 275.9 -44.1 276.4 -44.3 L 276.4 -44.3 L 277.3 -39.7 L 277.3 -39.7 Q 276.4 -39.3 275.4 -39.1 L 275.4 -39.1 L 275.4 -39.1 Q 274.5 -38.8 273.3 -38.7 L 273.3 -38.7 L 273.3 -38.7 Q 272.1 -38.5 270.5 -38.5 L 270.5 -38.5 Z M 279.5 -53.9 L 279.5 -53.9 Q 279.5 -58.2 280.7 -61.5 L 280.7 -61.5 L 280.7 -61.5 Q 281.9 -64.7 283.9 -67 L 283.9 -67 L 283.9 -67 Q 286 -69.2 288.8 -70.3 L 288.8 -70.3 L 288.8 -70.3 Q 291.7 -71.4 294.9 -71.4 L 294.9 -71.4 L 294.9 -71.4 Q 297.8 -71.4 299.8 -70.7 L 299.8 -70.7 L 299.8 -70.7 Q 301.8 -70 303.1 -68.8 L 303.1 -68.8 L 303.1 -68.8 Q 304.4 -67.6 305 -65.9 L 305 -65.9 L 305 -65.9 Q 305.6 -64.2 305.6 -62.3 L 305.6 -62.3 L 305.6 -62.3 Q 305.6 -60 304.3 -57.9 L 304.3 -57.9 L 304.3 -57.9 Q 303.1 -55.9 300.7 -54.3 L 300.7 -54.3 L 300.7 -54.3 Q 298.3 -52.7 294.9 -51.8 L 294.9 -51.8 L 294.9 -51.8 Q 291.5 -50.9 287.2 -50.8 L 287.2 -50.8 L 287.2 -50.8 Q 287.4 -49.3 287.9 -48 L 287.9 -48 L 287.9 -48 Q 288.3 -46.7 289.1 -45.7 L 289.1 -45.7 L 289.1 -45.7 Q 289.9 -44.7 291.1 -44.1 L 291.1 -44.1 L 291.1 -44.1 Q 292.4 -43.6 294.3 -43.6 L 294.3 -43.6 L 294.3 -43.6 Q 295.8 -43.6 297.4 -43.9 L 297.4 -43.9 L 297.4 -43.9 Q 299 -44.2 300.3 -44.7 L 300.3 -44.7 L 300.3 -44.7 Q 301.9 -45.2 303.4 -45.8 L 303.4 -45.8 L 305.4 -41.3 L 305.4 -41.3 Q 303.7 -40.4 301.8 -39.8 L 301.8 -39.8 L 301.8 -39.8 Q 300.1 -39.2 297.9 -38.8 L 297.9 -38.8 L 297.9 -38.8 Q 295.8 -38.3 293.3 -38.3 L 293.3 -38.3 L 293.3 -38.3 Q 289.6 -38.3 287 -39.4 L 287 -39.4 L 287 -39.4 Q 284.4 -40.6 282.7 -42.6 L 282.7 -42.6 L 282.7 -42.6 Q 281 -44.7 280.3 -47.5 L 280.3 -47.5 L 280.3 -47.5 Q 279.5 -50.4 279.5 -53.9 L 279.5 -53.9 Z M 294.3 -66.4 L 294.3 -66.4 Q 292.2 -66.4 290.9 -65.4 L 290.9 -65.4 L 290.9 -65.4 Q 289.5 -64.4 288.7 -62.9 L 288.7 -62.9 L 288.7 -62.9 Q 287.8 -61.3 287.5 -59.3 L 287.5 -59.3 L 287.5 -59.3 Q 287.1 -57.4 287.1 -55.4 L 287.1 -55.4 L 287.1 -55.4 Q 290.1 -55.5 292.3 -56.2 L 292.3 -56.2 L 292.3 -56.2 Q 294.4 -56.9 295.8 -57.9 L 295.8 -57.9 L 295.8 -57.9 Q 297.1 -58.9 297.7 -60 L 297.7 -60 L 297.7 -60 Q 298.3 -61.2 298.3 -62.3 L 298.3 -62.3 L 298.3 -62.3 Q 298.3 -64.2 297.2 -65.3 L 297.2 -65.3 L 297.2 -65.3 Q 296.1 -66.4 294.3 -66.4 L 294.3 -66.4 Z M 326 -64 L 326 -64 Q 324.8 -64 323.7 -63.4 L 323.7 -63.4 L 323.7 -63.4 Q 322.5 -62.8 321.6 -61.8 L 321.6 -61.8 L 321.6 -61.8 Q 320.7 -60.8 320.1 -59.4 L 320.1 -59.4 L 320.1 -59.4 Q 319.6 -58 319.6 -56.3 L 319.6 -56.3 L 319.6 -38.8 L 312.3 -38.8 L 312.3 -54.9 L 312.3 -54.9 Q 312.3 -58.7 311.8 -61.3 L 311.8 -61.3 L 311.8 -61.3 Q 311.2 -63.9 310.7 -65.5 L 310.7 -65.5 L 310.7 -65.5 Q 310 -67.4 309.1 -68.5 L 309.1 -68.5 L 314.9 -70.8 L 314.9 -70.8 Q 315.5 -70.1 316.1 -69.1 L 316.1 -69.1 L 316.1 -69.1 Q 316.6 -68.2 317.1 -67 L 317.1 -67 L 317.1 -67 Q 317.6 -65.8 318 -64.1 L 318 -64.1 L 318 -64.1 Q 319.2 -67.8 321.7 -69.5 L 321.7 -69.5 L 321.7 -69.5 Q 324.1 -71.1 327.2 -71.1 L 327.2 -71.1 L 327.2 -71.1 Q 328.7 -71.1 329.9 -70.7 L 329.9 -70.7 L 329.9 -70.7 Q 331.2 -70.4 331.1 -70.4 L 331.1 -70.4 L 329.1 -63.3 L 329.1 -63.3 Q 329.2 -63.3 328.4 -63.6 L 328.4 -63.6 L 328.4 -63.6 Q 327.6 -64 326 -64 L 326 -64 Z M 361.7 -70.6 L 361.4 -51.7 L 361.4 -51.7 Q 361.4 -49.8 361.6 -48.2 L 361.6 -48.2 L 361.6 -48.2 Q 361.9 -46.6 362.3 -45 L 362.3 -45 L 362.3 -45 Q 362.6 -43.4 363 -41.8 L 363 -41.8 L 363 -41.8 Q 363.3 -40.2 363.3 -38.3 L 363.3 -38.3 L 363.3 -38.3 Q 363.3 -31.5 359.8 -28.2 L 359.8 -28.2 L 359.8 -28.2 Q 356.4 -24.9 350.5 -24.9 L 350.5 -24.9 L 350.5 -24.9 Q 348.6 -24.9 346.6 -25.2 L 346.6 -25.2 L 346.6 -25.2 Q 344.7 -25.6 343.1 -26 L 343.1 -26 L 343.1 -26 Q 341.5 -26.5 340.3 -26.9 L 340.3 -26.9 L 340.3 -26.9 Q 339.1 -27.4 338.8 -27.6 L 338.8 -27.6 L 340.6 -33.1 L 340.6 -33.1 Q 341.5 -32.7 342.6 -32.3 L 342.6 -32.3 L 342.6 -32.3 Q 343.7 -31.9 344.9 -31.5 L 344.9 -31.5 L 344.9 -31.5 Q 346.1 -31.1 347.3 -30.9 L 347.3 -30.9 L 347.3 -30.9 Q 348.6 -30.6 349.8 -30.6 L 349.8 -30.6 L 349.8 -30.6 Q 353.4 -30.6 355 -32.8 L 355 -32.8 L 355 -32.8 Q 356.6 -34.9 356.6 -38.3 L 356.6 -38.3 L 356.6 -38.3 Q 356.6 -41.4 355.3 -44.7 L 355.3 -44.7 L 355.3 -44.7 Q 353.5 -41.3 350.6 -39.8 L 350.6 -39.8 L 350.6 -39.8 Q 347.6 -38.4 344.3 -38.4 L 344.3 -38.4 L 344.3 -38.4 Q 339.3 -38.4 337.1 -41.3 L 337.1 -41.3 L 337.1 -41.3 Q 335 -44.3 335 -49.4 L 335 -49.4 L 335 -70.6 L 342.3 -70.6 L 342.3 -49.6 L 342.3 -49.6 Q 342.3 -46.9 343.2 -45.4 L 343.2 -45.4 L 343.2 -45.4 Q 344.2 -43.8 346.5 -43.8 L 346.5 -43.8 L 346.5 -43.8 Q 347.7 -43.8 349.1 -44.5 L 349.1 -44.5 L 349.1 -44.5 Q 350.5 -45.2 351.6 -46.5 L 351.6 -46.5 L 351.6 -46.5 Q 352.7 -47.7 353.5 -49.5 L 353.5 -49.5 L 353.5 -49.5 Q 354.2 -51.2 354.2 -53.3 L 354.2 -53.3 L 354.2 -70.6 L 361.7 -70.6 Z" fill="url(#editing-glowing-gradient)"></path></g></g><style>text {
  font-size: 64px;
  font-family: Arial Black;
  dominant-baseline: central;
  text-anchor: middle;
}</style></svg>